<svg id="visual" viewBox="0 0 900 600" width="900" height="600" xmlns="http://www.w3.org/2000/svg" xmlns:xlink="http://www.w3.org/1999/xlink" version="1.1"><g stroke-width="1" stroke-linejoin="bevel"><path d="M422 362L362 319L296 407Z" fill="#112e42" stroke="#112e42"></path><path d="M296 407L394 480L422 362Z" fill="#277297" stroke="#277297"></path><path d="M362 319L269 336L296 407Z" fill="#0c2435" stroke="#0c2435"></path><path d="M296 407L336 507L394 480Z" fill="#1d4e6b" stroke="#1d4e6b"></path><path d="M269 336L234 426L296 407Z" fill="#297ea6" stroke="#297ea6"></path><path d="M296 407L237 484L336 507Z" fill="#112e42" stroke="#112e42"></path><path d="M532 600L490 464L394 480Z" fill="#112e42" stroke="#112e42"></path><path d="M394 480L490 464L422 362Z" fill="#297ea6" stroke="#297ea6"></path><path d="M490 464L505 437L422 362Z" fill="#081a28" stroke="#081a28"></path><path d="M420 188L337 233L362 319Z" fill="#205a7a" stroke="#205a7a"></path><path d="M362 319L337 233L269 336Z" fill="#0c2435" stroke="#0c2435"></path><path d="M420 188L362 319L422 362Z" fill="#0c2435" stroke="#0c2435"></path><path d="M234 426L237 484L296 407Z" fill="#246688" stroke="#246688"></path><path d="M505 437L531 306L422 362Z" fill="#112e42" stroke="#112e42"></path><path d="M531 306L420 188L422 362Z" fill="#297ea6" stroke="#297ea6"></path><path d="M289 600L376 600L336 507Z" fill="#297ea6" stroke="#297ea6"></path><path d="M336 507L376 600L394 480Z" fill="#0c2435" stroke="#0c2435"></path><path d="M337 233L161 282L269 336Z" fill="#205a7a" stroke="#205a7a"></path><path d="M269 336L122 377L234 426Z" fill="#277297" stroke="#277297"></path><path d="M234 426L138 482L237 484Z" fill="#081a28" stroke="#081a28"></path><path d="M177 161L161 282L337 233Z" fill="#205a7a" stroke="#205a7a"></path><path d="M237 484L289 600L336 507Z" fill="#277297" stroke="#277297"></path><path d="M629 397L581 336L505 437Z" fill="#0c2435" stroke="#0c2435"></path><path d="M505 437L581 336L531 306Z" fill="#205a7a" stroke="#205a7a"></path><path d="M531 306L471 186L420 188Z" fill="#112e42" stroke="#112e42"></path><path d="M599 172L471 186L531 306Z" fill="#081a28" stroke="#081a28"></path><path d="M161 282L122 377L269 336Z" fill="#205a7a" stroke="#205a7a"></path><path d="M237 484L161 600L289 600Z" fill="#246688" stroke="#246688"></path><path d="M122 377L138 482L234 426Z" fill="#00101c" stroke="#00101c"></path><path d="M471 186L407 129L420 188Z" fill="#15384f" stroke="#15384f"></path><path d="M420 188L407 129L337 233Z" fill="#19435d" stroke="#19435d"></path><path d="M611 508L629 397L505 437Z" fill="#112e42" stroke="#112e42"></path><path d="M581 336L599 172L531 306Z" fill="#112e42" stroke="#112e42"></path><path d="M611 508L505 437L490 464Z" fill="#277297" stroke="#277297"></path><path d="M376 600L532 600L394 480Z" fill="#1d4e6b" stroke="#1d4e6b"></path><path d="M161 282L108 273L122 377Z" fill="#081a28" stroke="#081a28"></path><path d="M177 161L108 273L161 282Z" fill="#277297" stroke="#277297"></path><path d="M532 600L611 508L490 464Z" fill="#277297" stroke="#277297"></path><path d="M407 129L277 109L337 233Z" fill="#1d4e6b" stroke="#1d4e6b"></path><path d="M277 109L177 161L337 233Z" fill="#297ea6" stroke="#297ea6"></path><path d="M138 482L161 600L237 484Z" fill="#297ea6" stroke="#297ea6"></path><path d="M685 427L668 313L629 397Z" fill="#081a28" stroke="#081a28"></path><path d="M629 397L668 313L581 336Z" fill="#246688" stroke="#246688"></path><path d="M471 186L488 75L407 129Z" fill="#1d4e6b" stroke="#1d4e6b"></path><path d="M668 313L599 172L581 336Z" fill="#1d4e6b" stroke="#1d4e6b"></path><path d="M611 508L685 427L629 397Z" fill="#112e42" stroke="#112e42"></path><path d="M694 472L685 427L611 508Z" fill="#19435d" stroke="#19435d"></path><path d="M532 600L614 600L611 508Z" fill="#112e42" stroke="#112e42"></path><path d="M599 172L488 75L471 186Z" fill="#246688" stroke="#246688"></path><path d="M407 129L313 0L277 109Z" fill="#00101c" stroke="#00101c"></path><path d="M177 161L70 209L108 273Z" fill="#297ea6" stroke="#297ea6"></path><path d="M0 301L0 428L122 377Z" fill="#277297" stroke="#277297"></path><path d="M0 470L95 600L138 482Z" fill="#297ea6" stroke="#297ea6"></path><path d="M138 482L95 600L161 600Z" fill="#19435d" stroke="#19435d"></path><path d="M91 137L70 209L177 161Z" fill="#112e42" stroke="#112e42"></path><path d="M0 428L138 482L122 377Z" fill="#246688" stroke="#246688"></path><path d="M707 600L694 472L611 508Z" fill="#205a7a" stroke="#205a7a"></path><path d="M825 234L696 182L668 313Z" fill="#246688" stroke="#246688"></path><path d="M183 0L161 100L277 109Z" fill="#297ea6" stroke="#297ea6"></path><path d="M277 109L161 100L177 161Z" fill="#112e42" stroke="#112e42"></path><path d="M0 301L122 377L108 273Z" fill="#00101c" stroke="#00101c"></path><path d="M161 100L91 137L177 161Z" fill="#277297" stroke="#277297"></path><path d="M0 234L0 301L108 273Z" fill="#15384f" stroke="#15384f"></path><path d="M0 428L0 470L138 482Z" fill="#246688" stroke="#246688"></path><path d="M0 234L108 273L70 209Z" fill="#19435d" stroke="#19435d"></path><path d="M488 75L391 0L407 129Z" fill="#0c2435" stroke="#0c2435"></path><path d="M391 0L313 0L407 129Z" fill="#246688" stroke="#246688"></path><path d="M64 0L0 61L91 137Z" fill="#297ea6" stroke="#297ea6"></path><path d="M91 137L0 234L70 209Z" fill="#0c2435" stroke="#0c2435"></path><path d="M668 313L696 182L599 172Z" fill="#0c2435" stroke="#0c2435"></path><path d="M599 172L611 76L488 75Z" fill="#081a28" stroke="#081a28"></path><path d="M488 75L481 0L391 0Z" fill="#15384f" stroke="#15384f"></path><path d="M799 381L668 313L685 427Z" fill="#00101c" stroke="#00101c"></path><path d="M696 182L611 76L599 172Z" fill="#0c2435" stroke="#0c2435"></path><path d="M611 76L481 0L488 75Z" fill="#081a28" stroke="#081a28"></path><path d="M614 600L707 600L611 508Z" fill="#112e42" stroke="#112e42"></path><path d="M694 472L771 463L685 427Z" fill="#205a7a" stroke="#205a7a"></path><path d="M0 470L0 600L95 600Z" fill="#112e42" stroke="#112e42"></path><path d="M707 600L771 463L694 472Z" fill="#15384f" stroke="#15384f"></path><path d="M313 0L183 0L277 109Z" fill="#081a28" stroke="#081a28"></path><path d="M91 137L0 61L0 234Z" fill="#112e42" stroke="#112e42"></path><path d="M771 463L799 381L685 427Z" fill="#19435d" stroke="#19435d"></path><path d="M799 381L812 317L668 313Z" fill="#0c2435" stroke="#0c2435"></path><path d="M696 182L696 72L611 76Z" fill="#205a7a" stroke="#205a7a"></path><path d="M776 130L696 72L696 182Z" fill="#246688" stroke="#246688"></path><path d="M611 76L630 0L481 0Z" fill="#15384f" stroke="#15384f"></path><path d="M696 72L630 0L611 76Z" fill="#205a7a" stroke="#205a7a"></path><path d="M64 0L91 137L161 100Z" fill="#19435d" stroke="#19435d"></path><path d="M183 0L64 0L161 100Z" fill="#0c2435" stroke="#0c2435"></path><path d="M825 234L776 130L696 182Z" fill="#297ea6" stroke="#297ea6"></path><path d="M696 72L716 0L630 0Z" fill="#205a7a" stroke="#205a7a"></path><path d="M812 317L825 234L668 313Z" fill="#112e42" stroke="#112e42"></path><path d="M707 600L823 600L771 463Z" fill="#112e42" stroke="#112e42"></path><path d="M771 463L900 437L799 381Z" fill="#0c2435" stroke="#0c2435"></path><path d="M799 381L900 437L812 317Z" fill="#1d4e6b" stroke="#1d4e6b"></path><path d="M812 317L900 279L825 234Z" fill="#205a7a" stroke="#205a7a"></path><path d="M806 0L696 72L776 130Z" fill="#081a28" stroke="#081a28"></path><path d="M806 0L716 0L696 72Z" fill="#205a7a" stroke="#205a7a"></path><path d="M64 0L0 0L0 61Z" fill="#277297" stroke="#277297"></path><path d="M900 534L900 437L771 463Z" fill="#205a7a" stroke="#205a7a"></path><path d="M900 437L900 279L812 317Z" fill="#19435d" stroke="#19435d"></path><path d="M825 234L900 208L776 130Z" fill="#19435d" stroke="#19435d"></path><path d="M823 600L900 534L771 463Z" fill="#19435d" stroke="#19435d"></path><path d="M900 279L900 208L825 234Z" fill="#1d4e6b" stroke="#1d4e6b"></path><path d="M823 600L900 600L900 534Z" fill="#15384f" stroke="#15384f"></path><path d="M900 70L806 0L776 130Z" fill="#19435d" stroke="#19435d"></path><path d="M900 208L900 70L776 130Z" fill="#1d4e6b" stroke="#1d4e6b"></path><path d="M900 70L900 0L806 0Z" fill="#246688" stroke="#246688"></path></g></svg>